<svg width="14" height="10" viewBox="0 0 14 10" fill="none" xmlns="http://www.w3.org/2000/svg">
<path d="M13.7988 5.0957L9.60156 0.898438C9.52865 0.834636 9.44434 0.802734 9.34863 0.802734C9.25293 0.802734 9.16862 0.834636 9.0957 0.898438C9.0319 0.971354 9 1.05566 9 1.15137C9 1.24707 9.0319 1.33138 9.0957 1.4043L12.7051 5H1.30273C1.20247 5 1.11816 5.03418 1.0498 5.10254C0.981445 5.1709 0.947266 5.25521 0.947266 5.35547C0.947266 5.44661 0.981445 5.52637 1.0498 5.59473C1.11816 5.66309 1.20247 5.69727 1.30273 5.69727H12.7051L9.10938 9.30664C9.03646 9.37044 9 9.4502 9 9.5459C9 9.6416 9.03646 9.72591 9.10938 9.79883C9.13672 9.83529 9.17318 9.86035 9.21875 9.87402C9.26432 9.8877 9.3099 9.89453 9.35547 9.89453C9.40104 9.89453 9.44434 9.8877 9.48535 9.87402C9.52637 9.86035 9.5651 9.83529 9.60156 9.79883L13.7988 5.60156C13.8626 5.52865 13.8945 5.44434 13.8945 5.34863C13.8945 5.25293 13.8626 5.16862 13.7988 5.0957Z" fill="#272D2D"/>
</svg>
