<svg width="19" height="19" viewBox="0 0 19 19" fill="none" xmlns="http://www.w3.org/2000/svg">
<path d="M6.8125 0.912042C6.56943 0.912042 6.36503 0.994906 6.1993 1.16063C6.03357 1.32636 5.95071 1.53076 5.95071 1.77383C5.93966 2.00585 6.017 2.20472 6.18273 2.37045C6.34846 2.53618 6.55286 2.61904 6.79592 2.61904H15.4801L1.16117 16.938C0.995438 17.1037 0.912574 17.3026 0.912574 17.5346C0.912574 17.7666 0.995438 17.9655 1.16117 18.1312C1.32689 18.2969 1.52577 18.3798 1.75779 18.3798C1.98981 18.3798 2.18868 18.2969 2.35441 18.1312L16.6733 3.81228V12.4964C16.6623 12.7285 16.7424 12.9301 16.9136 13.1013C17.0849 13.2726 17.2865 13.3527 17.5185 13.3417C17.7616 13.3417 17.966 13.2588 18.1317 13.0931C18.2975 12.9273 18.3803 12.7229 18.3803 12.4799V1.77383C18.3803 1.53076 18.2975 1.32636 18.1317 1.16063C17.966 0.994906 17.7616 0.912042 17.5185 0.912042H6.8125Z" fill="white"/>
</svg>
