<svg width="128" height="118" viewBox="0 0 128 118" fill="none" xmlns="http://www.w3.org/2000/svg">
<path d="M104 26.6666C104 28.1369 102.804 29.3333 101.333 29.3333H93.3333V21.3333H101.333C102.804 21.3333 104 22.5296 104 23.9999V26.6666ZM101.333 15.9999H90.6667C89.194 15.9999 88 17.1939 88 18.6666V42.6666C88 44.1393 89.194 45.3333 90.6667 45.3333C92.1393 45.3333 93.3333 44.1393 93.3333 42.6666V34.6666H101.333C105.744 34.6666 109.333 31.0779 109.333 26.6666V23.9999C109.333 19.5886 105.744 15.9999 101.333 15.9999ZM122.667 102.398C121.009 102.987 119.059 103.362 117.211 103.638C116.382 97.8249 111.373 93.3403 105.333 93.3403C99.1683 93.3403 94.077 98.0119 93.4093 104L42.59 104C41.9227 98.0123 36.831 93.3403 30.6663 93.3403C24.5247 93.3403 19.449 97.9776 18.7513 103.933C15.2047 103.823 10.1047 103.593 8.28367 103.217C7.18167 102.991 5.33333 102.407 5.33333 101.049V97.3033C6.35133 96.0956 7.87267 93.8886 7.87267 91.4879C7.87267 91.2583 7.862 90.9796 7.84367 90.6666H10.6663C12.139 90.6666 13.333 89.4726 13.333 87.9999C13.333 86.5273 12.139 85.3333 10.6663 85.3333H7.28133C7.04633 83.5026 6.804 81.8113 6.68667 81.0063C9.01667 80.9696 14.65 80.4669 21.1063 76.9223C22.119 76.3663 23.2627 75.6789 24.4733 74.9513C30.2893 71.4549 38.2553 66.6666 46.9997 66.6666C51.6327 66.6666 61.114 66.6833 61.1187 66.6833C70.324 66.6833 80.192 70.8059 93.1153 80.0509C93.4473 80.2886 93.8293 80.4469 94.2323 80.5133L94.687 80.5883C105.696 82.4056 111.761 83.4066 120.001 86.8713C121.595 87.5416 122.667 89.2376 122.667 91.0909V102.398ZM105.333 112C101.657 112 98.6663 109.011 98.6663 105.337C98.6663 101.663 101.657 98.6736 105.333 98.6736C109.009 98.6736 112 101.663 112 105.337C112 109.011 109.009 112 105.333 112ZM30.6663 112C26.9903 112 23.9997 109.011 23.9997 105.337C23.9997 101.663 26.9903 98.6736 30.6663 98.6736C34.3423 98.6736 37.333 101.663 37.333 105.337C37.333 109.011 34.3423 112 30.6663 112ZM122.068 81.9549C113.291 78.2643 106.652 77.1579 95.7107 75.3519C82.068 65.6719 71.3807 61.3499 61.1233 61.3499C61.1233 61.3499 51.636 61.3333 46.9997 61.3333C36.7757 61.3333 27.7187 66.7776 21.7257 70.3799C20.5103 71.1106 19.461 71.7413 18.5393 72.2473C12.7873 75.4053 7.829 75.6693 6.447 75.6749C4.80067 75.6813 3.23367 76.4266 2.25567 77.6679C1.39467 78.7609 1.08 80.1046 1.36367 81.4653C1.824 84.5816 2.53934 89.9783 2.53934 91.4879C2.53934 92.1436 1.61766 93.5506 0.799662 94.3646C0.287996 94.8659 0 95.5519 0 96.2686V101.049C0 104.748 2.69466 107.512 7.208 108.441C9.72733 108.96 16.056 109.196 19.338 109.287C20.9753 113.966 25.4337 117.333 30.6663 117.333C35.882 117.333 40.3287 113.989 41.979 109.333L94.0203 109.333C95.6707 113.989 100.117 117.333 105.333 117.333C110.638 117.333 115.147 113.873 116.727 109.093C119.863 108.676 123.606 108.031 126.545 106.533C127.438 106.077 128 105.159 128 104.157V91.0909C128 87.0563 125.672 83.4699 122.068 81.9549ZM83.2017 79.5293L80.1817 80.5943C78.111 81.3246 74.2377 81.3333 72.7153 81.3333L39.2683 80.0016C39.2327 79.9999 39.1977 79.9996 39.162 79.9996C38.1637 79.9996 37.166 79.4496 36.3577 78.4579L34.0723 75.6343C33.146 74.4899 31.467 74.3129 30.322 75.2393C29.177 76.1659 29.0003 77.8453 29.927 78.9899L32.2177 81.8199C34.0497 84.0686 36.4933 85.3143 39.1043 85.3326L72.5563 86.6646C72.5917 86.6659 72.627 86.6666 72.6623 86.6666C75.796 86.6666 79.3507 86.5426 81.9553 85.6243L84.9753 84.5593C86.3643 84.0696 87.093 82.5466 86.6037 81.1576C86.1137 79.7686 84.5903 79.0399 83.2017 79.5293ZM77.3333 10.6666H120V50.6666H77.3333V10.6666ZM75 55.9999H96V69.3333C96 70.8059 97.194 71.9999 98.6667 71.9999C100.139 71.9999 101.333 70.8059 101.333 69.3333V55.9999H122.333C123.988 55.9999 125.333 54.6539 125.333 52.9999V8.33326C125.333 6.67926 123.988 5.33326 122.333 5.33326H101.333V2.6666C101.333 1.19392 100.139 -7.62939e-05 98.6667 -7.62939e-05C97.194 -7.62939e-05 96 1.19392 96 2.6666V5.33326H75C73.3457 5.33326 72 6.67926 72 8.33326V52.9999C72 54.6539 73.3457 55.9999 75 55.9999Z" fill="#505151"/>
</svg>
