<svg width="58" height="65" viewBox="0 0 58 65" fill="none" xmlns="http://www.w3.org/2000/svg">
<path d="M8.46434 41.5519C8.43901 42.0625 8.41901 42.4652 8.40301 42.7079C8.36301 43.3492 8.74434 43.9412 9.34301 44.1705C12.9777 45.5599 22.1643 45.5999 23.2003 45.5999V42.6665C19.167 42.6665 14.0883 42.3705 11.3923 41.7279C11.407 41.4332 11.423 41.0972 11.4417 40.7265C11.7297 34.8105 12.4963 19.0972 13.9763 11.0652L11.091 10.5345C9.72034 17.9732 8.95901 31.6305 8.61101 38.5932C6.46567 38.4279 4.70167 37.8625 3.39767 36.8505L3.58301 34.8479C4.12567 28.9825 5.25234 16.7772 5.98834 10.9852C6.80567 4.55452 9.52301 3.15719 10.0883 2.93319H15.5563C17.0937 5.82652 20.9123 6.93319 23.2003 6.93319C25.4883 6.93319 29.307 5.82652 30.8443 2.93319H36.3017C36.9257 3.18252 39.603 4.61319 40.4123 10.9852C40.555 12.1052 40.7097 13.4599 40.875 14.9612L43.7897 14.6425C43.6243 13.1212 43.4657 11.7492 43.3217 10.6159C42.143 1.33052 37.071 0.0851898 36.8563 0.0358543C36.7497 0.0118561 36.6417 -0.000144958 36.5337 -0.000144958H29.867C29.2163 -0.000144958 28.643 0.429192 28.4603 1.05319C27.8937 2.97586 25.0417 3.99986 23.2003 3.99986C21.359 3.99986 18.5057 2.97586 17.9403 1.05319C17.7563 0.429192 17.1843 -0.000144958 16.5337 -0.000144958H9.86701C9.75901 -0.000144958 9.65101 0.0118561 9.54434 0.0358543C9.32967 0.0851898 4.25767 1.33052 3.07901 10.6159C2.33634 16.4572 1.20567 28.6972 0.663008 34.5785L0.407007 37.3279C0.364341 37.7759 0.529675 38.2185 0.855008 38.5292C2.72701 40.3119 5.28301 41.3265 8.46434 41.5519Z" fill="#515150"/>
<path d="M33.023 14.9856L35.9323 14.6096C35.731 13.0629 35.523 11.6923 35.3096 10.5349L32.4243 11.0656C32.6283 12.1723 32.8283 13.4909 33.023 14.9856Z" fill="#515150"/>
<path d="M48.4781 61.3333C47.9755 57.6946 46.5275 47.2639 45.9808 43.8986C45.3328 39.8986 44.6701 30.7853 44.6635 30.6946C44.6075 29.9266 43.9688 29.3333 43.2008 29.3333H39.2008C38.4315 29.3333 37.7928 29.9266 37.7368 30.6946C37.7301 30.7853 37.0675 39.8986 36.4195 43.8986C35.8728 47.2639 34.4248 57.6946 33.9221 61.3333H27.3755C27.5475 55.6666 28.2515 35.1786 29.8475 20.2666H52.5528C54.1488 35.1786 54.8528 55.6666 55.0248 61.3333H48.4781ZM53.8675 17.3333H28.5341C27.7875 17.3333 27.1595 17.8933 27.0755 18.6359C25.0915 36.1626 24.4075 62.4999 24.4008 62.7626C24.3915 63.1586 24.5408 63.5413 24.8168 63.8239C25.0928 64.1079 25.4715 64.2666 25.8675 64.2666H35.2008C35.9328 64.2666 36.5541 63.7253 36.6528 62.9999C36.6728 62.8546 38.6581 48.4159 39.3141 44.3679C39.8368 41.1519 40.3475 35.0039 40.5608 32.2666H41.8395C42.0528 35.0039 42.5635 41.1519 43.0861 44.3679C43.7421 48.4159 45.7275 62.8546 45.7475 62.9999C45.8461 63.7253 46.4675 64.2666 47.2008 64.2666H56.5341C56.9288 64.2666 57.3075 64.1079 57.5835 63.8239C57.8595 63.5413 58.0088 63.1586 57.9995 62.7626C57.9928 62.4999 57.3088 36.1626 55.3248 18.6359C55.2408 17.8933 54.6128 17.3333 53.8675 17.3333Z" fill="#515150"/>
</svg>
