<svg width="52" height="46" viewBox="0 0 52 46" fill="none" xmlns="http://www.w3.org/2000/svg">
<path d="M47.1584 43.0611C45.6664 42.4597 44.3131 41.5904 42.9331 40.7784C39.0131 38.4717 34.8744 36.7131 30.3584 36.0291C24.3678 35.1211 18.5718 35.7917 13.0451 38.4197C10.7278 39.5224 8.61711 40.9584 6.42378 42.2624C5.90778 42.5691 5.38244 42.8517 4.80511 43.0211C3.52378 43.3984 2.69044 42.7811 2.82378 41.4384C3.04511 39.2171 3.62511 37.0651 4.26111 34.9291C4.35578 34.6117 4.60644 34.4557 4.85311 34.2877C9.86911 30.8504 15.3411 28.6117 21.4251 27.9917C22.8291 27.8491 24.2358 27.7504 25.2264 27.6664C32.8104 27.8891 39.5571 29.5451 45.6624 33.4384C45.9838 33.6424 46.2944 33.9117 46.6478 34.0051C47.6798 34.2757 47.9984 35.0051 48.1664 35.9571C48.4584 37.6117 48.8464 39.2504 49.0144 40.9277C49.0464 41.2504 49.0491 41.5824 49.0158 41.9037C48.8958 43.0744 48.2424 43.4971 47.1584 43.0611ZM6.07044 17.5051C8.52644 11.6464 13.0438 8.32106 19.0731 6.81839C20.6091 6.43573 22.1691 6.29706 23.7464 6.22506C24.2958 6.19972 24.3878 6.40239 24.3838 6.86773C24.3718 8.25306 24.3824 9.63972 24.3971 11.0251C24.4411 15.3171 24.4744 19.6091 24.5558 23.8997C24.5704 24.6971 24.3784 24.9557 23.5291 24.9851C18.6718 25.1597 14.0424 26.3357 9.59844 28.2971C7.87711 29.0584 6.24511 29.9651 4.66644 30.9797C4.46778 31.1091 4.25711 31.2184 3.89711 31.4251C4.05178 26.5704 4.22244 21.9131 6.07044 17.5051ZM27.7891 6.17839C30.8638 6.37439 33.8811 6.77572 36.7264 8.08906C41.9558 10.5024 45.1984 14.5397 46.7358 20.0371C47.7704 23.7384 47.7958 27.5371 47.9491 31.5171C45.5944 29.9891 43.3331 28.7117 40.8771 27.7904C36.7611 26.2451 32.5344 25.2171 28.1344 24.9744C27.5811 24.9451 27.3771 24.7651 27.3598 24.2091C27.1771 18.4237 27.3118 12.6357 27.2331 6.85039C27.2278 6.46772 27.2518 6.14506 27.7891 6.17839ZM50.6744 34.7464C50.5851 34.4264 50.5211 34.1011 50.5984 33.7811C50.8278 32.8411 50.7398 31.8877 50.7704 30.5544C50.8238 29.8211 50.6451 28.7144 50.5971 27.6024C50.4944 25.2664 50.2958 22.9397 49.7691 20.6557C48.8704 16.7531 47.3198 13.1597 44.5358 10.2144C40.9184 6.39039 36.3078 4.54773 31.2104 3.79306C30.3184 3.66106 29.8624 3.35306 29.5131 2.51306C28.7331 0.634392 27.6024 0.13039 25.1131 0.323723C23.5784 0.44239 22.7584 1.18906 22.2558 2.97972C22.1131 3.48639 21.8931 3.72906 21.3144 3.77039C19.2758 3.91839 17.2611 4.27172 15.3518 5.01039C8.20511 7.77172 3.84378 12.9331 2.19444 20.4117C1.51178 23.5064 1.34645 26.6504 1.23045 29.7971C1.18111 31.1197 1.05178 32.4624 1.52111 33.7571C1.62511 34.0451 1.52111 34.3464 1.42511 34.6344C0.918445 36.1584 0.567778 37.7211 0.278444 39.2971C0.00244427 40.7997 -0.21889 42.3011 0.382443 43.7891C0.90911 45.0944 2.07044 45.8597 3.44644 45.9784C5.27311 46.1344 6.79711 45.4264 8.24911 44.4811C9.88911 43.4117 11.5398 42.3677 13.2718 41.4477C18.2424 38.8064 23.5384 38.0157 29.0691 38.6651C33.5691 39.1931 37.6678 40.8931 41.5424 43.1891C42.6638 43.8544 43.8104 44.4771 44.9558 45.1011C46.1238 45.7384 47.3558 46.0357 48.7091 45.9891C49.9584 45.9477 50.7704 45.3664 51.2758 44.3091C51.8264 43.1584 52.0078 41.9251 51.8384 40.6544C51.5758 38.6611 51.2184 36.6851 50.6744 34.7464Z" fill="#515050"/>
</svg>
