<svg width="43" height="43" viewBox="0 0 43 43" fill="none" xmlns="http://www.w3.org/2000/svg">
<path d="M16.3816 29.6929C14.5616 31.5139 8.36061 35.8439 6.65561 35.9559C6.76861 34.2509 11.0986 28.0509 12.9196 26.2309L34.6236 4.52594C35.8516 3.29794 38.8356 1.95894 40.0626 1.95894C40.2756 1.95894 40.4356 1.99894 40.5246 2.08794C41.1226 2.68694 39.5276 6.54694 38.0866 7.98794L16.3816 29.6929ZM14.8086 40.3319L11.9386 35.5489C11.9686 35.5289 11.9956 35.5129 12.0256 35.4939C13.0036 34.8589 13.9716 34.1739 14.8376 33.5279L15.6686 39.9409L14.8086 40.3319ZM2.27961 27.8029L2.67161 26.9429L9.08461 27.7749C8.43761 28.6409 7.75261 29.6079 7.11861 30.5869C7.09861 30.6169 7.08361 30.6429 7.06461 30.6739L2.27961 27.8029ZM13.3596 14.4069C13.2896 14.3369 13.2096 14.2779 13.1226 14.2309L3.22861 8.96294L3.23861 8.29794L23.8596 12.4619L17.6366 18.6849L13.3596 14.4069ZM34.3136 39.3729L33.6496 39.3829L28.3816 29.4899C28.3346 29.4029 28.2756 29.3229 28.2056 29.2529L23.9276 24.9749L30.1506 18.7519L34.3136 39.3729ZM22.5136 26.3889L26.6856 30.5619L32.1716 40.8629C32.3456 41.1899 32.6856 41.3929 33.0546 41.3929H33.0706L35.5486 41.3539C35.8446 41.3489 36.1246 41.2119 36.3106 40.9809C36.4976 40.7489 36.5706 40.4469 36.5116 40.1559L31.8476 17.0549L39.5006 9.40194C40.8906 8.01294 43.9686 2.70394 41.9386 0.672939C39.9086 -1.35706 34.5996 1.72194 33.2096 3.11194L25.5566 10.7649L2.45661 6.09994C2.16661 6.04094 1.86261 6.11494 1.63161 6.30094C1.40061 6.48694 1.26361 6.76694 1.25861 7.06394L1.21861 9.54194C1.21361 9.91694 1.41761 10.2639 1.74861 10.4409L12.0506 15.9259L16.2226 20.0989L11.5056 24.8169C11.2786 25.0429 10.9286 25.4439 10.5166 25.9439L2.19561 24.8649C1.76361 24.8109 1.33961 25.0429 1.15761 25.4429L0.0896078 27.7869C-0.120392 28.2499 0.0496077 28.7969 0.485608 29.0589L6.03061 32.3859C4.55661 35.0009 4.29361 36.5659 5.16961 37.4429C5.50661 37.7789 5.94161 37.9509 6.49961 37.9509C7.39661 37.9509 8.60961 37.5049 10.2306 36.5889L13.5526 42.1269C13.7386 42.4369 14.0686 42.6119 14.4106 42.6119C14.5496 42.6119 14.6906 42.5829 14.8246 42.5219L17.1696 41.4549C17.5686 41.2729 17.8036 40.8519 17.7466 40.4159L16.6686 32.0959C17.1686 31.6839 17.5686 31.3339 17.7956 31.1069L22.5136 26.3889Z" fill="#B02F4A"/>
</svg>
