<svg width="13" height="14" viewBox="0 0 13 14" fill="none" xmlns="http://www.w3.org/2000/svg">
<g clip-path="url(#clip0_92_753)">
<path d="M5.72464 0.989746C4.59242 0.989746 3.48562 1.32549 2.5442 1.95452C1.60279 2.58355 0.869049 3.47762 0.435765 4.52366C0.00248039 5.5697 -0.110887 6.72074 0.11 7.83121C0.330886 8.94168 0.876106 9.96171 1.67671 10.7623C2.47732 11.5629 3.49735 12.1081 4.60782 12.329C5.71829 12.5499 6.86933 12.4366 7.91537 12.0033C8.96141 11.57 9.85548 10.8362 10.4845 9.89483C11.1135 8.95341 11.4493 7.84661 11.4493 6.71439C11.4478 5.19658 10.8442 3.74136 9.77092 2.66811C8.69767 1.59486 7.24245 0.991244 5.72464 0.989746ZM5.72464 11.3828C4.80118 11.3828 3.89845 11.109 3.13061 10.5959C2.36278 10.0829 1.76432 9.35365 1.41093 8.50048C1.05753 7.64731 0.965066 6.7085 1.14523 5.80278C1.32539 4.89705 1.77008 4.06509 2.42307 3.4121C3.07606 2.75911 3.90802 2.31442 4.81374 2.13426C5.71946 1.9541 6.65827 2.04657 7.51144 2.39996C8.36462 2.75336 9.09383 3.35181 9.60689 4.11965C10.1199 4.88748 10.3938 5.79021 10.3938 6.71368C10.3927 7.95167 9.90037 9.13863 9.02498 10.014C8.14959 10.8894 6.96263 11.3817 5.72464 11.3828Z" fill="#A5A6AA"/>
<path d="M12.8423 13.087L9.81227 10.0571C9.76374 10.0057 9.70541 9.96462 9.64072 9.93621C9.57603 9.90781 9.5063 9.89265 9.43566 9.89165C9.36502 9.89066 9.2949 9.90385 9.22944 9.93043C9.16398 9.95701 9.10452 9.99643 9.05456 10.0464C9.00461 10.0963 8.96518 10.1558 8.93861 10.2213C8.91203 10.2867 8.89884 10.3569 8.89983 10.4275C8.90083 10.4981 8.91597 10.5679 8.94437 10.6326C8.97278 10.6972 9.01387 10.7556 9.06521 10.8041L12.0952 13.8341C12.1952 13.9286 12.3281 13.9804 12.4657 13.9785C12.6032 13.9765 12.7346 13.921 12.8319 13.8237C12.9292 13.7264 12.9847 13.5951 12.9866 13.4575C12.9886 13.3199 12.9368 13.187 12.8423 13.087Z" fill="#A5A6AA"/>
</g>
<defs>
<clipPath id="clip0_92_753">
<rect width="13" height="13" fill="white" transform="translate(0 0.989746)"/>
</clipPath>
</defs>
</svg>
