<svg width="129" height="110" viewBox="0 0 129 110" fill="none" xmlns="http://www.w3.org/2000/svg">
<path d="M40.06 102.677L31.3703 93.9871C32.5293 92.1347 33.15 89.9907 33.15 87.7517C33.15 84.6034 31.9237 81.6437 29.6977 79.4177C27.4713 77.1914 24.5117 75.9654 21.3633 75.9651C19.1243 75.9651 16.9803 76.5857 15.128 77.7447L6.438 69.0548L60.1107 15.3818L62.1463 17.5894L66.067 13.9738L62.149 9.72509C61.657 9.19109 60.9687 8.88142 60.2427 8.86642C59.5047 8.85309 58.8163 9.13376 58.303 9.64709L0.781001 67.1691C0.281001 67.6691 0 68.3474 0 69.0548C0 69.7617 0.281001 70.4404 0.781001 70.9404L13.0293 83.1884C13.5297 83.6887 14.2077 83.9694 14.915 83.9694C15.6223 83.9694 16.3007 83.6887 16.801 83.1884C18.0197 81.9697 19.6397 81.2984 21.3633 81.2984C23.087 81.2987 24.7073 81.9697 25.9267 83.1887C27.1453 84.4077 27.8167 86.0281 27.8167 87.7517C27.8167 89.4754 27.1453 91.0954 25.9267 92.3141C25.4263 92.8141 25.1453 93.4924 25.1453 94.1997C25.1453 94.9067 25.4263 95.5854 25.9263 96.0857L38.1743 108.334C38.695 108.854 39.3773 109.115 40.06 109.115C40.7423 109.115 41.425 108.854 41.9453 108.334L49.969 100.311L46.1977 96.5394L40.06 102.677ZM91.0487 40.9064L98.1567 48.0141L101.928 44.2424L94.8193 37.1351L91.0487 40.9064ZM84.158 26.4731L80.3863 30.2441L87.4943 37.3518L91.2657 33.5807L84.158 26.4731ZM109.8 52.1144L105.484 47.7984L101.712 51.5694L106.028 55.8857L62.939 98.9751L54.2467 90.2824C57.0803 85.7357 56.5233 79.6627 52.5763 75.7154C48.629 71.7684 42.5563 71.2107 38.0087 74.0447L29.3167 65.3527L72.406 22.2634L76.831 26.6884L80.6023 22.9174L76.1773 18.4921L88.2313 6.43809L96.921 15.1281C95.7613 16.9804 95.1413 19.1244 95.1413 21.3638C95.1413 24.5118 96.3677 27.4717 98.594 29.6981C100.82 31.9241 103.78 33.1497 106.928 33.1497C109.167 33.1497 111.311 32.5297 113.163 31.3704L121.853 40.0604L109.8 52.1144ZM115.262 25.9268C114.761 25.4264 114.083 25.1454 113.376 25.1454C112.669 25.1454 111.991 25.4264 111.49 25.9268C110.272 27.1454 108.651 27.8164 106.928 27.8164C105.204 27.8164 103.584 27.1454 102.365 25.9268C101.146 24.7077 100.475 23.0871 100.475 21.3638C100.475 19.6401 101.146 18.0198 102.365 16.8008C102.865 16.3008 103.146 15.6224 103.146 14.9151C103.146 14.2081 102.865 13.5298 102.365 13.0298L90.117 0.781418C89.6167 0.281082 88.9387 9.15527e-05 88.2313 9.15527e-05C87.524 9.15527e-05 86.8457 0.281082 86.3453 0.781418L23.6597 63.4671C22.6183 64.5084 22.6183 66.1971 23.6597 67.2384L35.9077 79.4864C36.9493 80.5281 38.6377 80.5278 39.6787 79.4864C42.1953 76.9701 46.2893 76.9711 48.8047 79.4867C51.3207 82.0027 51.3207 86.0961 48.8047 88.6121C47.7633 89.6537 47.7633 91.3417 48.8047 92.3834L61.053 104.632C61.574 105.152 62.2563 105.413 62.939 105.413C63.6217 105.413 64.3037 105.152 64.8247 104.632L127.51 41.9461C128.552 40.9048 128.552 39.2164 127.51 38.1751L115.262 25.9268ZM75.8753 59.8827L78.1247 65.5644L72.4937 63.8401C71.6307 63.5761 70.692 63.7668 70 64.3461L65.1247 68.4324L65.2053 62.4298C65.2183 61.4578 64.7013 60.5554 63.8563 60.0754L58.3823 56.9654L64.3577 54.9644C65.2783 54.6561 65.9587 53.8714 66.134 52.9164L67.2173 47.0051L71.211 51.9521C71.7783 52.6551 72.6673 53.0231 73.562 52.9291L79.4153 52.3197L76.1117 57.4591C75.6473 58.1817 75.5593 59.0837 75.8753 59.8827ZM84.3843 46.4404L74.4507 47.4744L67.7167 39.1338C67.062 38.3227 65.9957 37.9678 64.9843 38.2244C63.9743 38.4814 63.2063 39.3031 63.0187 40.3281L61.1717 50.4067L51.0253 53.8047C50.0273 54.1387 49.3193 55.0284 49.2177 56.0757C49.116 57.1231 49.6397 58.1321 50.5543 58.6517L59.8513 63.9341L59.714 74.1761C59.7 75.2188 60.2947 76.1737 61.2363 76.6208C61.601 76.7941 61.9917 76.8784 62.38 76.8784C62.9947 76.8784 63.6037 76.6661 64.0933 76.2557L72.3167 69.3637L81.864 72.2868C82.8437 72.5874 83.909 72.2987 84.604 71.5457C85.2993 70.7931 85.5013 69.7081 85.124 68.7554L81.338 59.1917L86.9033 50.5347C87.4577 49.6721 87.469 48.5684 86.9313 47.6951C86.394 46.8218 85.4013 46.3351 84.3843 46.4404Z" fill="#515151"/>
</svg>
