<svg width="55" height="65" viewBox="0 0 55 65" fill="none" xmlns="http://www.w3.org/2000/svg">
<path d="M2.93334 2.93327H37.3333V6.66659H2.93334V2.93327ZM9.60001 58.7999V52.1813C9.98801 52.2293 10.384 52.2666 10.8 52.2666H28.1333V49.3333H10.8C8.99467 49.3333 7.02533 48.6439 6.908 46.6986L4.37067 9.59994H35.8827L35.4 15.8199L38.3253 16.0466L38.824 9.59459C39.6227 9.58125 40.2667 8.9346 40.2667 8.13326V1.4666C40.2667 0.65593 39.6093 -7.62939e-05 38.8 -7.62939e-05H1.46667C0.657341 -7.62939e-05 0 0.65593 0 1.4666V8.13326C0 8.92926 0.637342 9.57059 1.42934 9.59192L3.98 46.8879C4.09333 48.7679 5.09467 50.2693 6.66667 51.2079V58.7999C6.66667 61.8133 9.67067 64.2666 13.364 64.2666H28.236V61.3333H13.364C11.324 61.3333 9.60001 60.1719 9.60001 58.7999Z" fill="#515150"/>
<path d="M20.1334 27.9995C18.7361 27.9995 17.6001 26.8635 17.6001 25.4662C17.6001 24.0689 18.7361 22.9329 20.1334 22.9329C21.5307 22.9329 22.6667 24.0689 22.6667 25.4662C22.6667 26.8635 21.5307 27.9995 20.1334 27.9995ZM25.6001 25.4662C25.6001 22.4515 23.1481 19.9995 20.1334 19.9995C17.1187 19.9995 14.6667 22.4515 14.6667 25.4662C14.6667 28.4809 17.1187 30.9329 20.1334 30.9329C23.1481 30.9329 25.6001 28.4809 25.6001 25.4662Z" fill="#515150"/>
<path d="M21.6001 14.8001H18.6667V17.0681H21.6001V14.8001Z" fill="#515150"/>
<path d="M15.2316 18.4903L13.6276 16.8863L11.553 18.9609L13.157 20.5649L15.2316 18.4903Z" fill="#515150"/>
<path d="M9.4668 26.9333H11.7348V24H9.4668V26.9333Z" fill="#515150"/>
<path d="M15.2316 32.4421L13.157 30.3675L11.553 31.9715L13.6276 34.0461L15.2316 32.4421Z" fill="#515150"/>
<path d="M18.6667 36.1333H21.6001V33.8653H18.6667V36.1333Z" fill="#515150"/>
<path d="M25.0352 32.4421L26.6392 34.0461L28.7125 31.9715L27.1098 30.3675L25.0352 32.4421Z" fill="#515150"/>
<path d="M30.8 24H28.532V26.9333H30.8V24Z" fill="#515150"/>
<path d="M28.7127 18.9609L26.6381 16.8863L25.0354 18.4903L27.1087 20.5649L28.7127 18.9609Z" fill="#515150"/>
<path d="M51.9998 60.1328C51.9998 60.7941 51.4612 61.3328 50.7998 61.3328H34.7998C34.1385 61.3328 33.5998 60.7941 33.5998 60.1328V33.4661C33.5998 32.8048 34.1385 32.2661 34.7998 32.2661H50.7998C51.4612 32.2661 51.9998 32.8048 51.9998 33.4661V60.1328ZM37.5998 22.7994C37.5998 22.1381 38.1385 21.5994 38.7998 21.5994H46.7998C47.4612 21.5994 47.9998 22.1381 47.9998 22.7994V29.3328H37.5998V22.7994ZM50.9332 29.3461V22.7994C50.9332 20.5208 49.0798 18.6661 46.7998 18.6661H38.7998C36.5212 18.6661 34.6665 20.5208 34.6665 22.7994V29.3461C32.4505 29.4181 30.6665 31.2328 30.6665 33.4661V60.1328C30.6665 62.4114 32.5212 64.2661 34.7998 64.2661H50.7998C53.0798 64.2661 54.9332 62.4114 54.9332 60.1328V33.4661C54.9332 31.2328 53.1492 29.4181 50.9332 29.3461Z" fill="#515150"/>
</svg>
