<svg width="38" height="48" viewBox="0 0 38 48" fill="none" xmlns="http://www.w3.org/2000/svg">
<path d="M32 10H6V9C6 7.897 6.897 7 8 7H30C31.103 7 32 7.897 32 9V10ZM32 25H6V12H32V25ZM30 30H25V32H30V30ZM13 30H8V32H13V30ZM32 36C32 37.103 31.103 38 30 38H8C6.897 38 6 37.103 6 36V27H32V36ZM9.211 43L10.86 40H27.637L29.342 43H9.211ZM24.233 2L22.434 5H15.566L13.767 2H24.233ZM38 22V16C38 15.682 37.849 15.384 37.594 15.195L34 12.546V9C34 6.794 32.206 5 30 5H24.766L26.857 1.515C27.043 1.206 27.048 0.820999 26.87 0.507C26.692 0.194 26.36 0 26 0H12C11.64 0 11.308 0.194 11.13 0.507C10.952 0.820999 10.957 1.206 11.143 1.515L13.234 5H8C5.794 5 4 6.794 4 9V12.5L0.4 15.2C0.148 15.389 0 15.685 0 16V22H2V16.5L4 15V36C4 38.206 5.794 40 8 40H8.578L4.995 46.519C4.729 47.002 4.905 47.61 5.39 47.876C5.542 47.96 5.707 48 5.87 48C6.224 48 6.565 47.813 6.747 47.482L8.111 45H30.478L31.895 47.493C32.078 47.817 32.417 47.999 32.765 47.999C32.932 47.999 33.102 47.957 33.258 47.869C33.738 47.596 33.906 46.985 33.633 46.505L29.937 40H30C32.206 40 34 38.206 34 36V15.03L36 16.505V22H38Z" fill="#B02F4A"/>
</svg>
