<svg width="64" height="46" viewBox="0 0 64 46" fill="none" xmlns="http://www.w3.org/2000/svg">
<path d="M30.5862 38.7698C30.5422 38.7178 30.4955 38.6685 30.4462 38.6232L28.3395 36.7165C25.1302 34.2565 23.0302 33.8858 19.2195 33.2152L17.7835 32.9592C11.0115 31.7272 8.36351 29.8085 4.99151 25.9725C3.58751 24.3752 2.84084 22.7311 2.94218 21.4632C3.00351 20.7151 3.35418 20.0858 4.01551 19.5405C4.82484 18.8725 5.56351 18.2792 6.21551 17.7631C7.42218 22.7685 14.0115 27.1285 16.9715 28.1978C18.3635 28.7005 19.7182 28.9765 21.0288 29.2445C24.1035 29.8725 26.7582 30.4152 29.4275 33.6565C33.4622 38.5552 39.6395 41.1458 47.2915 41.1458L49.3968 41.1538C49.9902 41.1565 50.5568 41.1592 51.0982 41.1592C52.5755 41.1592 53.8635 41.1298 55.0262 41.0192C53.5182 41.9592 51.7782 42.4445 49.8128 42.4445H39.5928C36.8142 42.4445 32.0168 40.4872 30.5862 38.7698ZM8.97418 15.7991C9.33951 12.9431 12.1862 9.00182 17.4342 4.08182C18.8155 2.78582 19.0302 2.81248 21.0942 3.06982L21.1822 3.08048C21.1808 3.08848 21.1808 3.09648 21.1808 3.10448C21.1675 4.22448 21.1422 6.30981 23.8048 8.50315C28.0288 11.9831 32.3915 10.3232 34.4875 9.52582L34.8808 9.37782C36.5715 8.75115 36.8688 8.87648 37.5355 10.4685C38.9982 13.9605 47.6328 26.6578 49.7275 29.3751C49.9302 29.6391 50.2168 29.8258 50.5408 29.9045C53.7275 30.6845 57.8795 31.8445 60.0475 32.7005C60.3142 33.3591 59.6475 35.7205 58.5782 36.8258C56.7355 38.2618 54.1288 38.2538 49.4142 38.2192L47.2915 38.2125C40.4488 38.2125 35.1995 36.0512 31.6915 31.7912C28.3635 27.7485 24.7795 27.0165 21.6155 26.3712C20.3528 26.1125 19.1582 25.8685 17.9675 25.4378C15.0662 24.3898 8.49551 19.5365 8.97418 15.7991ZM59.2248 41.3098C59.6328 40.8632 61.3968 38.6698 62.1235 36.6912C62.8088 35.2432 63.2075 33.5431 62.9368 32.1978C62.7248 31.1458 62.1155 30.3685 61.2208 30.0112C58.9182 29.0885 54.7955 27.9405 51.7448 27.1805C49.1542 23.6992 41.4488 12.2178 40.2422 9.33648C38.6128 5.44581 35.9782 5.84582 33.8635 6.62715L33.4435 6.78448C31.3915 7.56715 28.5822 8.63782 25.6688 6.23915C24.0928 4.93915 24.1035 4.02448 24.1142 3.13915C24.1235 2.34581 24.1462 0.487148 21.7568 0.195148L21.4555 0.159149C18.9302 -0.155518 17.7155 -0.202183 15.4248 1.94315C13.4835 3.76315 7.96884 8.94715 6.42484 13.8805C5.67418 14.4525 4.09818 15.6712 2.15018 17.2765C0.87951 18.3245 0.142175 19.6912 0.0181754 21.2285C-0.148491 23.3138 0.835508 25.6858 2.78751 27.9085C6.47017 32.0965 9.71951 34.4738 17.2582 35.8445L18.7102 36.1032C22.3915 36.7525 23.9142 37.0205 26.4608 38.9658L28.4035 40.7312C30.4515 43.0898 35.9422 45.3792 39.5928 45.3792H49.8128C54.5195 45.3792 57.5288 43.1658 59.2248 41.3098Z" fill="#515150"/>
<path d="M36.2661 13.2447H33.3328V15.9114H36.2661V13.2447Z" fill="#515150"/>
<path d="M35.9993 19.9114H38.9326V17.2447H35.9993V19.9114Z" fill="#515150"/>
<path d="M38.666 23.9114H41.5993V21.2447H38.666V23.9114Z" fill="#515150"/>
</svg>
