<svg width="48" height="24" viewBox="0 0 48 24" fill="none" xmlns="http://www.w3.org/2000/svg">
<path d="M29.905 8H14.511L11.804 5.293L10.39 6.707L13.39 9.707C13.577 9.895 13.832 10 14.097 10H30.097C30.224 10 30.349 9.976 30.467 9.929L32.467 9.132L31.727 7.274L29.905 8ZM46.002 18H42.072C41.818 15.201 39.461 13 36.597 13C33.726 13 31.366 15.211 31.121 18.019C28.803 18.02 26.178 18.015 23.537 18.009C20.934 18.003 18.353 17.997 16.072 17.999C15.817 15.201 13.461 13 10.597 13C7.73297 13 5.37597 15.201 5.12197 18H5.09697C3.50797 18 2.58497 17.267 2.19097 15.693C1.80197 14.139 2.00898 10.551 2.80798 8H5.28397C5.48997 8 5.69197 7.936 5.85997 7.817C6.94897 7.049 7.89598 6.299 8.80998 5.575C11.43 3.5 13.323 2 16.097 2H23.938C27.014 2 30.131 3.712 34.361 7.726C34.511 7.867 34.7 7.959 34.905 7.989C40.518 8.812 46.002 11.757 46.002 13V18ZM36.597 22C34.667 22 33.097 20.43 33.097 18.5C33.097 16.57 34.667 15 36.597 15C38.527 15 40.097 16.57 40.097 18.5C40.097 20.43 38.527 22 36.597 22ZM10.597 22C8.66697 22 7.09697 20.43 7.09697 18.5C7.09697 16.57 8.66697 15 10.597 15C12.527 15 14.097 16.57 14.097 18.5C14.097 20.43 12.527 22 10.597 22ZM35.51 6.06C32.284 3.027 28.402 0 23.938 0H16.097C12.627 0 10.282 1.857 7.56897 4.007C6.74897 4.656 5.90397 5.326 4.96497 6H2.09697C1.68297 6 1.31198 6.255 1.16398 6.641C0.117976 9.36 -0.317024 13.905 0.250976 16.178C0.866976 18.643 2.58797 20 5.09697 20H5.30998C5.96498 22.305 8.08497 24 10.597 24C13.109 24 15.229 22.305 15.884 20C18.211 19.998 20.86 20.004 23.532 20.009C25.881 20.015 28.231 20.02 30.353 20.02C30.685 20.02 30.995 20.02 31.315 20.019C31.976 22.315 34.092 24 36.597 24C39.109 24 41.229 22.305 41.884 20H47.002C47.554 20 48.002 19.552 48.002 19V13C48.002 9.672 40.156 6.815 35.51 6.06Z" fill="#B02F4A"/>
</svg>
