<svg width="58" height="58" viewBox="0 0 58 58" fill="none" xmlns="http://www.w3.org/2000/svg">
<path d="M54.0093 45.3573L52.1227 47.244C51.7653 47.6 51.4427 47.8413 50.456 47.7627C50.024 47.7213 49.6 47.88 49.2947 48.1867L48.3533 49.128L47.4093 50.0707C47.1027 50.3773 46.948 50.8027 46.984 51.2333C47.068 52.216 46.8227 52.544 46.4653 52.9L44.604 54.764C44.1173 55.1333 40.3453 56.02 35.3413 51.0133L28.7413 44.416C28.1067 43.7813 27.5853 42.844 27.3827 42.1893L28.7413 40.8307L26.6667 38.7587L25.204 40.2213C24.704 40.188 24.356 40.0293 24.0267 39.7013L23.084 38.7587C22.7547 38.428 22.5973 38.08 22.5653 37.58L24.0267 36.1173L21.9533 34.0453L20.4893 35.508C19.988 35.476 19.6413 35.316 19.3133 34.988L18.3707 34.0453C18.0413 33.7147 17.884 33.368 17.8507 32.8667L19.3133 31.404L17.2387 29.3293L15.7413 30.8253C15.3147 30.8267 15.0373 30.7107 14.5987 30.272L12.712 28.3853C11.3493 27.028 9.76 25.0773 9.55866 22.0267C9.49466 21.048 9.552 20.2067 9.60933 19.3933L9.63333 19.0413C9.65733 18.6587 9.68533 18.344 9.708 18.084C9.80666 16.9453 9.87867 16.124 8.94267 15.1867L7.15066 13.396L9.884 10.6613L9.88533 10.6627L12.62 7.928L14.4093 9.71867C15.3467 10.6573 16.1707 10.584 17.3093 10.4853C17.5693 10.4627 17.8813 10.436 18.2653 10.4107L18.5947 10.3867C19.4133 10.3307 20.26 10.2707 21.2493 10.336C24.3013 10.5387 26.2507 12.1267 27.6093 13.492L29.496 15.3773C29.9347 15.8147 30.048 16.0907 30.048 16.52L28.552 18.0147L30.6267 20.0907L32.0907 18.6267C32.5907 18.6587 32.9373 18.8187 33.2667 19.148L34.2093 20.0893C34.5387 20.4187 34.696 20.7667 34.7293 21.2667L33.2653 22.7307L35.3413 24.804L36.804 23.34C37.304 23.3733 37.652 23.5333 37.9813 23.8613L38.924 24.804C39.252 25.1333 39.4093 25.4813 39.4427 25.9827L37.9813 27.444L40.0547 29.5173L41.412 28.16C42.0653 28.3613 43.0027 28.8827 43.6373 29.5173L50.2373 36.1187C55.2413 41.1227 54.3573 44.896 54.0093 45.3573ZM5.076 11.3227L3.28533 9.53201C2.81733 9.06267 2.81733 8.30134 3.28533 7.832L5.17066 5.948L7.05733 4.06133C7.50933 3.608 8.3 3.608 8.75333 4.06267L10.544 5.85334L7.81067 8.58667L5.076 11.3227ZM52.312 34.0453L45.712 27.444C44.8733 26.6053 43.5907 25.7667 42.3307 25.368C42.2107 24.5333 41.8653 23.5987 40.9973 22.7307L40.056 21.788C39.2467 20.9787 38.3787 20.6227 37.5893 20.4813C37.448 19.692 37.092 18.8253 36.284 18.0147L35.3413 17.0733C34.548 16.28 33.6987 15.9227 32.9213 15.776C32.796 15.0013 32.4387 14.1693 31.5693 13.3013L29.6853 11.4187C28.0987 9.82667 25.5187 7.67867 21.444 7.40934C20.2533 7.32933 19.2627 7.39867 18.3893 7.46134L18.072 7.484C17.6653 7.50933 17.3333 7.54 17.056 7.56266C16.8387 7.58133 16.6 7.60267 16.4493 7.60801L13.656 4.81733L10.828 1.98933C9.26533 0.425331 6.54133 0.428001 4.98267 1.988L3.096 3.87334L1.21067 5.76C0.430668 6.54 0 7.57734 0 8.68134C0 9.78667 0.430668 10.8253 1.21067 11.6053L4.03733 14.4307C4.03733 14.432 4.03867 14.4333 4.03867 14.4347L6.83067 17.228C6.82533 17.38 6.804 17.6147 6.78667 17.8293C6.76133 18.108 6.732 18.4413 6.70533 18.848L6.68267 19.1907C6.62267 20.0587 6.55467 21.0427 6.632 22.2187C6.90133 26.2947 9.04933 28.876 10.6387 30.4613L12.5253 32.3453C13.3933 33.216 14.224 33.5733 14.9987 33.6987C15.1467 34.476 15.5027 35.3267 16.296 36.1173L17.2387 37.06C18.0467 37.8693 18.9147 38.224 19.704 38.3667C19.8453 39.156 20.2013 40.024 21.0093 40.8307L21.9533 41.7733C22.82 42.6427 23.756 42.9893 24.5907 43.108C24.9893 44.3667 25.828 45.6507 26.6667 46.4907L33.2667 53.088C36.5973 56.42 39.568 57.52 41.4733 57.8573C42.0227 57.9533 42.564 58 43.0813 58C44.6 58 45.92 57.596 46.6547 56.8587L48.54 54.9733C49.468 54.0467 49.9107 53.0147 49.9333 51.696L50.4253 51.204L49.3893 50.1653L50.4253 51.2027L50.9187 50.7107C52.2373 50.688 53.2693 50.2453 54.1973 49.3173L56.0827 47.432C57.0693 46.4453 57.46 44.412 57.0787 42.2507C56.7427 40.3453 55.6427 37.376 52.312 34.0453Z" fill="#515150"/>
</svg>
