<svg width="48" height="40" viewBox="0 0 48 40" fill="none" xmlns="http://www.w3.org/2000/svg">
<path d="M7.716 21.1199C9.928 19.8289 17.295 15.6619 22.547 14.2769V27.9999H24.547V14.2769C29.799 15.6619 37.166 19.8289 39.378 21.1199C38.498 23.9229 36.017 28.8879 35.054 30.7749L34.522 30.3979C33.344 29.5629 31.782 29.5919 30.635 30.4679L28.91 31.7849C28.449 32.1359 27.828 32.1399 27.365 31.7929L25.565 30.4459C24.408 29.5829 22.846 29.5709 21.678 30.4159L19.759 31.8049C19.298 32.1379 18.663 32.1259 18.214 31.7699L16.611 30.5029C15.477 29.6059 13.911 29.5509 12.718 30.3709L12.064 30.8209C11.116 28.9669 8.603 23.9439 7.716 21.1199ZM19.547 18.9999H17.547V20.9999H19.547V18.9999ZM4.85 37.3809C5.325 37.0709 5.938 37.1069 6.373 37.4729L7.776 38.6499C8.9 39.5939 10.532 39.6739 11.742 38.8429L13.851 37.3939C14.316 37.0739 14.927 37.0959 15.37 37.4459L16.974 38.7139C18.119 39.6209 19.747 39.6569 20.931 38.7989L22.85 37.4109C23.306 37.0799 23.916 37.0849 24.367 37.4229L26.168 38.7689C27.338 39.6419 28.965 39.6339 30.123 38.7479L31.848 37.4319C32.297 37.0899 32.905 37.0779 33.365 37.4039L35.36 38.8169C36.551 39.6619 38.181 39.6109 39.32 38.6899L40.845 37.4559C41.285 37.1009 41.897 37.0729 42.366 37.3889L45.988 39.8289L47.106 38.1709L43.484 35.7299C42.281 34.9199 40.716 34.9869 39.587 35.9009L38.062 37.1349C37.618 37.4949 36.984 37.5149 36.516 37.1849L34.522 35.7719C33.347 34.9379 31.783 34.9659 30.635 35.8419L28.909 37.1589C28.45 37.5099 27.828 37.5129 27.365 37.1669L25.565 35.8209C24.411 34.9589 22.849 34.9449 21.678 35.7899L19.758 37.1789C19.299 37.5129 18.663 37.5009 18.214 37.1449L16.611 35.8769C15.476 34.9789 13.91 34.9259 12.718 35.7459L10.61 37.1939C10.137 37.5189 9.501 37.4869 9.061 37.1189L7.659 35.9409C6.542 35.0029 4.972 34.9099 3.755 35.7069L0 38.1629L1.094 39.8369L4.85 37.3809ZM13.547 10.9999H16.547C17.1 10.9999 17.547 10.5519 17.547 9.99992V6.99992H29.547V9.99992C29.547 10.5519 29.994 10.9999 30.547 10.9999H33.547V15.7169C30.323 14.1419 26.64 12.5869 23.732 12.0409C23.611 12.0179 23.484 12.0179 23.362 12.0409C20.454 12.5869 16.771 14.1419 13.547 15.7169V10.9999ZM20.547 1.99992H26.547V4.99992H20.547V1.99992ZM4.85 32.0069C5.325 31.6969 5.938 31.7329 6.373 32.0989L7.776 33.2759C8.9 34.2199 10.532 34.2999 11.742 33.4679L13.85 32.0199C14.317 31.6989 14.927 31.7209 15.37 32.0719L16.974 33.3389C18.119 34.2459 19.747 34.2829 20.931 33.4249L22.85 32.0369C23.306 31.7059 23.916 31.7109 24.367 32.0479L26.168 33.3939C27.336 34.2679 28.965 34.2599 30.123 33.3739L31.849 32.0569C32.297 31.7159 32.905 31.7039 33.365 32.0299L35.36 33.4429C36.553 34.2899 38.183 34.2369 39.32 33.3159L40.845 32.0809C41.285 31.7259 41.897 31.6979 42.366 32.0139L45.988 34.4539L47.106 32.7959L43.484 30.3549C42.281 29.5449 40.714 29.6119 39.587 30.5269L38.062 31.7609C37.679 32.0719 37.156 32.1129 36.72 31.9099C37.69 30.0239 40.821 23.8129 41.52 20.8819C41.62 20.4589 41.437 20.0199 41.066 19.7949C40.865 19.6729 38.584 18.2979 35.547 16.7239V9.99992C35.547 9.44792 35.1 8.99992 34.547 8.99992H31.547V5.99992C31.547 5.44792 31.1 4.99992 30.547 4.99992H28.547V0.999916C28.547 0.447918 28.1 -8.39233e-05 27.547 -8.39233e-05H19.547C18.994 -8.39233e-05 18.547 0.447918 18.547 0.999916V4.99992H16.547C15.994 4.99992 15.547 5.44792 15.547 5.99992V8.99992H12.547C11.994 8.99992 11.547 9.44792 11.547 9.99992V16.7239C8.511 18.2979 6.229 19.6729 6.029 19.7949C5.657 20.0199 5.474 20.4589 5.574 20.8819C6.275 23.8209 9.421 30.0569 10.382 31.9259C9.946 32.1109 9.435 32.0579 9.061 31.7449L7.659 30.5669C6.543 29.6299 4.974 29.5359 3.755 30.3329L0 32.7879L1.094 34.4619L4.85 32.0069Z" fill="#B02F4A"/>
</svg>
