<svg width="71" height="79" viewBox="0 0 71 79" fill="none" xmlns="http://www.w3.org/2000/svg">
<path d="M35.5 75.4766C17.9109 75.4766 3.58887 61.3967 3.58887 44.0713C3.58913 26.7461 17.911 12.667 35.5 12.667C53.0889 12.667 67.4109 26.7461 67.4111 44.0713C67.4111 61.3967 53.0891 75.4766 35.5 75.4766ZM37.0449 43.5713V20.7988H33.9551V43.5713H37.0449ZM33.9551 9.71875L33.4834 9.74512C25.3988 10.2014 18.056 13.3512 12.3535 18.3164L12.0029 18.6221L11.6729 18.2949L8.39062 15.0381L8.10059 15.3203L7.75098 14.9775L6.65039 13.8965L5.05371 15.4658L6.13281 16.5283L6.49707 16.8867L6.20312 17.1729L9.47656 20.4209L9.81641 20.7588L9.49316 21.1133C3.92005 27.2152 0.500121 35.2488 0.5 44.0713C0.5 63.0474 16.1933 78.5 35.5 78.5C54.8049 78.5 70.5 63.0474 70.5 44.0713C70.4999 35.2488 67.08 27.2152 61.5068 21.1133L61.1836 20.7588L61.5234 20.4209L64.7959 17.1729L64.5029 16.8867L64.8672 16.5283L65.9453 15.4668L64.3477 13.8965L63.249 14.9766L62.9004 15.3193L62.6084 15.0371L59.3271 18.2939L58.9971 18.6221L58.6465 18.3164C52.944 13.3512 45.5994 10.2014 37.5166 9.74512L37.0449 9.71875V3.52344H40.5762V0.5H30.4238V3.52344H33.9551V9.71875Z" fill="#515150" stroke="black"/>
</svg>
